<?xml version="1.0" encoding="UTF-8" standalone="no"?>
<!-- Created with Inkscape (http://www.inkscape.org/) -->

<svg
   width="512.0px"
   height="512.0px"
   viewBox="0 0 512.0 512.0"
   version="1.1"
   id="SVGRoot"
   sodipodi:docname="pgs-logo-icon.svg"
   inkscape:version="1.2.2 (b0a84865, 2022-12-01)"
   xmlns:inkscape="http://www.inkscape.org/namespaces/inkscape"
   xmlns:sodipodi="http://sodipodi.sourceforge.net/DTD/sodipodi-0.dtd"
   xmlns="http://www.w3.org/2000/svg"
   xmlns:svg="http://www.w3.org/2000/svg">
  <sodipodi:namedview
     id="namedview124"
     pagecolor="#ffffff"
     bordercolor="#000000"
     borderopacity="0.25"
     inkscape:showpageshadow="2"
     inkscape:pageopacity="0.0"
     inkscape:pagecheckerboard="0"
     inkscape:deskcolor="#d1d1d1"
     inkscape:document-units="px"
     showgrid="true"
     inkscape:zoom="0.36740532"
     inkscape:cx="533.47078"
     inkscape:cy="329.33655"
     inkscape:window-width="1440"
     inkscape:window-height="752"
     inkscape:window-x="0"
     inkscape:window-y="25"
     inkscape:window-maximized="0"
     inkscape:current-layer="layer1">
    <inkscape:grid
       type="xygrid"
       id="grid130" />
  </sodipodi:namedview>
  <defs
     id="defs119" />
  <g
     inkscape:label="Capa 1"
     inkscape:groupmode="layer"
     id="layer1">
    <g
       id="g179"
       transform="matrix(4.1624546,0,0,4.1624546,-265.16165,-233.85987)">
      <g
         id="g249"
         transform="matrix(3.7729123,0,0,3.5014154,-138.98163,-327.74305)">
        <path
           style="fill:#aaa4a2;stroke-width:0.264583"
           d="m 68.409491,132.9438 c 0.0054,-0.43657 0.06469,-0.58313 0.131773,-0.3257 0.06708,0.25743 0.06267,0.61462 -0.0098,0.79375 -0.07249,0.17913 -0.127376,-0.0315 -0.121984,-0.46805 z m 3.704167,0 c 0.0054,-0.43657 0.06469,-0.58313 0.131773,-0.3257 0.06708,0.25743 0.06267,0.61462 -0.0098,0.79375 -0.07249,0.17913 -0.127376,-0.0315 -0.121984,-0.46805 z m -3.470275,-1.87414 c 0.0127,-0.30822 0.07539,-0.37092 0.159851,-0.15985 0.07643,0.191 0.06703,0.4192 -0.02088,0.50712 -0.08792,0.0879 -0.150453,-0.0684 -0.138964,-0.34727 z m -4.797632,-1.63159 -0.911799,-0.99219 0.992188,0.9118 c 0.923507,0.84868 1.113839,1.07257 0.911798,1.07257 -0.04421,0 -0.490698,-0.44648 -0.992187,-0.99218 z m 12.714243,0.0661 c 0.493655,-0.50932 0.957086,-0.92604 1.029846,-0.92604 0.07276,0 -0.271608,0.41672 -0.765262,0.92604 -0.493655,0.50932 -0.957086,0.92604 -1.029846,0.92604 -0.07276,0 0.271608,-0.41672 0.765262,-0.92604 z m -8.710361,-5.04913 c 0.0127,-0.30822 0.07539,-0.37092 0.159851,-0.15985 0.07643,0.19099 0.06703,0.4192 -0.02088,0.50712 -0.08792,0.0879 -0.150453,-0.0684 -0.138964,-0.34727 z m -2.030403,-1.23472 -0.504028,-0.59531 0.595313,0.50402 c 0.559447,0.47367 0.715762,0.6866 0.504028,0.6866 -0.05021,0 -0.318097,-0.26789 -0.595313,-0.59531 z m 2.116668,-0.52917 -0.504029,-0.59531 0.595313,0.50403 c 0.559445,0.47366 0.715761,0.68659 0.504028,0.68659 -0.05021,0 -0.318098,-0.26789 -0.595312,-0.59531 z m -11.727933,-0.61736 c 0.0127,-0.30822 0.07539,-0.37092 0.159853,-0.15985 0.07643,0.19099 0.06703,0.4192 -0.02089,0.50712 -0.08792,0.0879 -0.150453,-0.0684 -0.138964,-0.34727 z m 15.291196,-0.0441 c -0.329108,-0.41964 -0.319749,-0.429 0.0999,-0.0999 0.440729,0.34564 0.580887,0.56291 0.363124,0.56291 -0.05494,0 -0.2633,-0.20836 -0.46302,-0.46302 z m 12.754639,0.0441 c 0.0127,-0.30822 0.07539,-0.37092 0.159851,-0.15985 0.07643,0.19099 0.06703,0.4192 -0.02088,0.50712 -0.08792,0.0879 -0.150453,-0.0684 -0.138965,-0.34727 z m -20.02207,-0.44097 -0.504028,-0.59531 0.595313,0.50402 c 0.559447,0.47367 0.715762,0.6866 0.504028,0.6866 -0.05021,0 -0.318097,-0.26789 -0.595313,-0.59531 z m 4.605738,-0.1146 c 0.190995,-0.0764 0.419198,-0.067 0.507119,0.0209 0.08792,0.0879 -0.06835,0.15045 -0.347266,0.13897 -0.308226,-0.0127 -0.370919,-0.0754 -0.159853,-0.15986 z m 1.5875,0 c 0.190995,-0.0764 0.419198,-0.067 0.507119,0.0209 0.08792,0.0879 -0.06835,0.15045 -0.347266,0.13897 -0.308226,-0.0127 -0.370919,-0.0754 -0.159853,-0.15986 z m -14.217003,-1.03193 c 0.0127,-0.30822 0.07539,-0.37092 0.159853,-0.15985 0.07643,0.19099 0.06703,0.4192 -0.02089,0.50712 -0.08792,0.0879 -0.150453,-0.0684 -0.138964,-0.34727 z m 28.045835,0 c 0.0127,-0.30822 0.07539,-0.37092 0.159851,-0.15985 0.07643,0.19099 0.06703,0.4192 -0.02088,0.50712 -0.08792,0.0879 -0.150453,-0.0684 -0.138965,-0.34727 z m -7.164639,0.0716 c 0,-0.0455 0.386953,-0.43249 0.859896,-0.8599 l 0.859896,-0.7771 -0.777105,0.85989 c -0.724371,0.80155 -0.942687,0.98152 -0.942687,0.77711 z"
           id="path193"
           sodipodi:nodetypes="sssssssssssssssscsssssssssssssscsssscssssssssssssssssssscssssssssssssssssssssssssscss" />
        <path
           style="fill:#5ea1b7;stroke-width:0.264583"
           d="m 67.696452,135.72192 c -0.08994,-0.14552 -0.03743,-0.26458 0.116676,-0.26458 0.15411,0 0.280199,0.11906 0.280199,0.26458 0,0.14552 -0.0525,0.26458 -0.116675,0.26458 -0.06417,0 -0.190262,-0.11906 -0.2802,-0.26458 z m 4.894792,0 c 0,-0.14552 0.12609,-0.26458 0.280199,-0.26458 0.154109,0 0.206613,0.11906 0.116676,0.26458 -0.08994,0.14552 -0.216027,0.26458 -0.280199,0.26458 -0.06417,0 -0.116676,-0.11906 -0.116676,-0.26458 z m 1.322917,0 c 0,-0.14552 0.12609,-0.26458 0.280199,-0.26458 0.154109,0 0.206613,0.11906 0.116676,0.26458 -0.08994,0.14552 -0.216027,0.26458 -0.280199,0.26458 -0.06417,0 -0.116676,-0.11906 -0.116676,-0.26458 z m -10.73227,-5.6224 -0.777105,-0.85989 0.859896,0.7771 c 0.472942,0.42741 0.859895,0.81437 0.859895,0.8599 0,0.20441 -0.218315,0.0244 -0.942686,-0.77711 z m 13.378103,0.76001 c 0,-0.055 0.20836,-0.26331 0.463021,-0.46303 0.419645,-0.3291 0.429003,-0.31974 0.0999,0.0999 -0.345644,0.44073 -0.562917,0.58089 -0.562917,0.36313 z m -11.132525,-4.59646 -0.641433,-0.72761 0.727604,0.64144 c 0.400182,0.35278 0.727604,0.68021 0.727604,0.7276 0,0.20751 -0.214259,0.0386 -0.813775,-0.64143 z m 9.545025,0.0661 c 0.341776,-0.3638 0.68094,-0.66146 0.7537,-0.66146 0.07276,0 -0.147341,0.29766 -0.489116,0.66146 -0.341776,0.3638 -0.68094,0.66146 -0.7537,0.66146 -0.07276,0 0.147341,-0.29766 0.489116,-0.66146 z m -17.231666,-1.38906 c -0.329107,-0.41964 -0.319749,-0.429 0.09989,-0.0999 0.440729,0.34565 0.580887,0.56292 0.363126,0.56292 -0.05494,0 -0.263301,-0.20836 -0.463021,-0.46302 z m 24.64,0.36313 c 0,-0.055 0.208359,-0.26331 0.463021,-0.46303 0.419645,-0.3291 0.429003,-0.31974 0.0999,0.0999 -0.345644,0.44073 -0.562917,0.58089 -0.562917,0.36313 z m -26.172863,-4.0232 c 0.0127,-0.30822 0.07539,-0.37092 0.159853,-0.15985 0.07643,0.19099 0.06703,0.4192 -0.02089,0.50712 -0.08792,0.0879 -0.150453,-0.0684 -0.138964,-0.34727 z m 28.045835,0 c 0.0127,-0.30822 0.07539,-0.37092 0.159851,-0.15985 0.07643,0.19099 0.06703,0.4192 -0.02088,0.50712 -0.08792,0.0879 -0.150453,-0.0684 -0.138965,-0.34727 z"
           id="path191"
           sodipodi:nodetypes="sssssssssssssssscssssssssscssssssssssssssssssssssssssss" />
        <path
           style="fill:#b48574;stroke-width:0.264583"
           d="m 71.024633,132.92175 c 0.0127,-0.30823 0.07539,-0.37092 0.159851,-0.15986 0.07643,0.191 0.06703,0.4192 -0.02088,0.50712 -0.08792,0.0879 -0.150453,-0.0684 -0.138964,-0.34726 z m -5.346305,-7.45243 c -0.329107,-0.41965 -0.319749,-0.42901 0.0999,-0.0999 0.440729,0.34564 0.580887,0.56292 0.363126,0.56292 -0.05494,0 -0.263301,-0.20836 -0.463021,-0.46302 z m 7.97125,0.36312 c 0,-0.0549 0.208359,-0.2633 0.46302,-0.46302 0.419645,-0.32911 0.429004,-0.31975 0.0999,0.0999 -0.345643,0.44073 -0.562916,0.58088 -0.562916,0.36312 z m -5.799945,-0.58361 c 0.0127,-0.30822 0.07539,-0.37092 0.159851,-0.15985 0.07643,0.19099 0.06703,0.4192 -0.02088,0.50712 -0.08792,0.0879 -0.150453,-0.0684 -0.138964,-0.34727 z"
           id="path189"
           sodipodi:nodetypes="ssssssssssssssssssss" />
        <path
           style="fill:#04a7dd;stroke-width:0.264583"
           d="m 64.124577,133.9864 c -1.091406,-0.78649 -2.254847,-1.75955 -2.585425,-2.16236 -0.622396,-0.75839 -1.54786,-3.43416 -1.280303,-3.70172 0.238424,-0.23842 2.146084,1.18569 3.437062,2.56585 1.36192,1.456 3.203116,4.81242 2.60493,4.74867 -0.105539,-0.0113 -1.084857,-0.66395 -2.176264,-1.45044 z m 2.645834,-0.57815 c -1.20086,-2.63359 -3.128871,-4.7117 -5.955321,-6.41896 -3.281081,-1.98186 -4.363429,-3.39148 -4.363429,-5.6828 0,-2.1249 0.187523,-2.18692 1.736905,-0.57446 0.769739,0.80108 2.509531,2.19534 3.866206,3.09836 2.831409,1.88462 3.991941,2.89924 4.854476,4.24412 0.755304,1.17768 1.448663,3.45204 1.448663,4.75189 0,1.19704 -0.27192,2.63411 -0.496094,2.62181 -0.09095,-0.005 -0.582083,-0.92297 -1.091406,-2.03996 z m 5.721614,1.22221 c -0.271428,-1.35713 -0.190296,-2.69734 0.253815,-4.19282 0.803058,-2.70419 1.945648,-3.98579 5.900534,-6.61839 1.36579,-0.90915 3.107746,-2.29777 3.871016,-3.08582 1.538025,-1.58796 1.715521,-1.52552 1.715521,0.60343 0,2.22765 -1.14586,3.70414 -4.404416,5.67529 -2.783686,1.68388 -4.720989,3.779 -5.914334,6.3961 -0.509323,1.11699 -1.000456,2.03497 -1.091406,2.03996 -0.09095,0.005 -0.239779,-0.36299 -0.33073,-0.81775 z m 2.093939,-0.16536 c 0.654336,-1.56695 1.592758,-3.02967 2.60149,-4.05493 1.122349,-1.14075 3.030273,-2.49585 3.231181,-2.29494 0.228082,0.22809 -0.413104,2.35849 -0.996627,3.3114 -0.433356,0.70768 -4.65237,4.03066 -5.117518,4.03066 -0.07307,0 0.0536,-0.44649 0.281474,-0.99219 z"
           id="path187"
           sodipodi:nodetypes="sssscsssssssssssssssssssssssss" />
        <path
           style="fill:#ba7259;stroke-width:0.264583"
           d="m 71.024633,133.7155 c 0.0127,-0.30823 0.07539,-0.37092 0.159851,-0.15986 0.07643,0.191 0.06703,0.4192 -0.02088,0.50712 -0.08792,0.0879 -0.150453,-0.0684 -0.138964,-0.34726 z m -2.116667,-1.32292 c 0.0127,-0.30822 0.07539,-0.37092 0.159851,-0.15985 0.07643,0.19099 0.06703,0.4192 -0.02088,0.50712 -0.08792,0.0879 -0.150452,-0.0684 -0.138964,-0.34727 z m 2.116667,-0.26458 c 0.0127,-0.30823 0.07539,-0.37092 0.159851,-0.15986 0.07643,0.191 0.06703,0.4192 -0.02088,0.50712 -0.08792,0.0879 -0.150453,-0.0683 -0.138964,-0.34726 z M 82.6663,115.72383 c 0.0127,-0.30822 0.07539,-0.37092 0.159851,-0.15985 0.07643,0.19099 0.06703,0.4192 -0.02088,0.50712 -0.08792,0.0879 -0.150453,-0.0684 -0.138965,-0.34727 z"
           id="path185"
           sodipodi:nodetypes="ssssssssssssssssssss" />
        <path
           style="fill:#c36645;stroke-width:0.264583"
           d="m 70.76005,124.71966 c 0.0127,-0.30822 0.07539,-0.37092 0.15985,-0.15985 0.07643,0.191 0.06703,0.4192 -0.02088,0.50712 -0.08792,0.0879 -0.150453,-0.0683 -0.138965,-0.34727 z m 9.504111,-4.21128 c 0.341776,-0.3638 0.68094,-0.66146 0.7537,-0.66146 0.07276,0 -0.147341,0.29766 -0.489117,0.66146 -0.341775,0.3638 -0.680939,0.66146 -0.7537,0.66146 -0.07276,0 0.147341,-0.29766 0.489117,-0.66146 z m -20.935833,-0.33073 c -0.329107,-0.41964 -0.319749,-0.429 0.0999,-0.0999 0.440729,0.34565 0.580887,0.56292 0.363126,0.56292 -0.05494,0 -0.263301,-0.20836 -0.463021,-0.46302 z"
           id="path183"
           sodipodi:nodetypes="sssssssssssssss" />
        <path
           style="fill:#d9582b;stroke-width:0.264583"
           d="m 69.098585,139.38883 c -0.92244,-1.93053 -0.9267,-1.95586 -0.505338,-3.00527 0.283536,-0.70615 0.422061,-1.85074 0.416282,-3.43958 -0.0076,-2.09563 -0.105849,-2.58754 -0.818925,-4.10105 -1.024604,-2.17472 -2.837261,-4.18691 -5.234415,-5.8106 -3.659882,-2.47898 -5.446195,-4.90525 -5.446195,-7.39732 0,-0.72559 0.136679,-1.61924 0.303732,-1.98588 0.290949,-0.63856 0.327903,-0.59479 0.878108,1.04014 0.805047,2.3922 2.281503,4.40061 4.759642,6.4745 1.17057,0.97961 2.664091,2.45704 3.318935,3.28317 1.15675,1.4593 1.19281,1.4811 1.267465,0.7662 0.04226,-0.40471 0.199718,-1.04921 0.349904,-1.43223 0.23382,-0.59632 0.175244,-0.79423 -0.40757,-1.37704 -0.825188,-0.82519 -0.921128,-1.38118 -0.16886,-0.97858 0.281475,0.15064 1.110809,0.27389 1.842961,0.27389 1.118904,0 1.459222,0.12516 2.13406,0.78484 0.97458,0.95268 1.002427,1.12741 0.145392,0.91231 -0.545653,-0.13695 -0.704636,-0.041 -0.934731,0.56421 -0.327393,0.86111 -0.0075,2.06771 0.578342,2.18142 0.219398,0.0426 0.723993,-0.394 1.126233,-0.97444 0.400812,-0.57837 2.0818,-2.31484 3.735528,-3.85883 3.130632,-2.92289 4.691494,-5.043 5.0227,-6.82232 0.243318,-1.30717 0.53604,-1.44491 0.89322,-0.42031 0.400616,1.14921 0.363294,2.71305 -0.09068,3.79956 -0.582679,1.39455 -2.695893,3.49495 -5.044927,5.01435 -5.099556,3.29849 -7.072265,7.72081 -5.817698,13.04182 l 0.390186,1.6549 -0.881536,1.87954 -0.881536,1.87954 z"
           id="path181"
           sodipodi:nodetypes="sssssssssssssssssssssssssscccs" />
      </g>
    </g>
  </g>
</svg>
